<mxfile host="Electron" agent="Mozilla/5.0 (Windows NT 10.0; Win64; x64) AppleWebKit/537.36 (KHTML, like Gecko) draw.io/26.0.9 Chrome/128.0.6613.186 Electron/32.2.5 Safari/537.36" version="26.0.9">
  <diagram name="Страница — 1" id="wSBs1uLLcrK82tTgQlld">
    <mxGraphModel dx="2261" dy="2005" grid="1" gridSize="10" guides="1" tooltips="1" connect="1" arrows="1" fold="1" page="1" pageScale="1" pageWidth="827" pageHeight="1169" math="0" shadow="0">
      <root>
        <mxCell id="0" />
        <mxCell id="1" parent="0" />
        <mxCell id="t4XwmmyLBH88IYUbOUnE-19" value="" style="ellipse;whiteSpace=wrap;html=1;fillColor=#008a00;fontColor=#ffffff;strokeColor=#005700;" vertex="1" parent="1">
          <mxGeometry x="294" y="-50" width="240" height="205" as="geometry" />
        </mxCell>
        <mxCell id="t4XwmmyLBH88IYUbOUnE-10" style="rounded=0;orthogonalLoop=1;jettySize=auto;html=1;exitX=0.5;exitY=1;exitDx=0;exitDy=0;entryX=0.5;entryY=0;entryDx=0;entryDy=0;" edge="1" parent="1" source="t4XwmmyLBH88IYUbOUnE-1" target="t4XwmmyLBH88IYUbOUnE-2">
          <mxGeometry relative="1" as="geometry" />
        </mxCell>
        <mxCell id="t4XwmmyLBH88IYUbOUnE-11" style="rounded=0;orthogonalLoop=1;jettySize=auto;html=1;exitX=0.5;exitY=1;exitDx=0;exitDy=0;entryX=0.5;entryY=0;entryDx=0;entryDy=0;" edge="1" parent="1" source="t4XwmmyLBH88IYUbOUnE-1" target="t4XwmmyLBH88IYUbOUnE-4">
          <mxGeometry relative="1" as="geometry" />
        </mxCell>
        <mxCell id="t4XwmmyLBH88IYUbOUnE-12" style="rounded=0;orthogonalLoop=1;jettySize=auto;html=1;exitX=0.5;exitY=1;exitDx=0;exitDy=0;entryX=0.5;entryY=0;entryDx=0;entryDy=0;" edge="1" parent="1" source="t4XwmmyLBH88IYUbOUnE-1" target="t4XwmmyLBH88IYUbOUnE-3">
          <mxGeometry relative="1" as="geometry" />
        </mxCell>
        <mxCell id="t4XwmmyLBH88IYUbOUnE-13" style="rounded=0;orthogonalLoop=1;jettySize=auto;html=1;exitX=0.5;exitY=1;exitDx=0;exitDy=0;entryX=0.5;entryY=0;entryDx=0;entryDy=0;" edge="1" parent="1" source="t4XwmmyLBH88IYUbOUnE-1" target="t4XwmmyLBH88IYUbOUnE-6">
          <mxGeometry relative="1" as="geometry" />
        </mxCell>
        <mxCell id="t4XwmmyLBH88IYUbOUnE-14" style="rounded=0;orthogonalLoop=1;jettySize=auto;html=1;exitX=0.5;exitY=1;exitDx=0;exitDy=0;entryX=0.5;entryY=0;entryDx=0;entryDy=0;" edge="1" parent="1" source="t4XwmmyLBH88IYUbOUnE-1" target="t4XwmmyLBH88IYUbOUnE-8">
          <mxGeometry relative="1" as="geometry" />
        </mxCell>
        <mxCell id="t4XwmmyLBH88IYUbOUnE-15" style="rounded=0;orthogonalLoop=1;jettySize=auto;html=1;exitX=0.5;exitY=1;exitDx=0;exitDy=0;entryX=0.5;entryY=0;entryDx=0;entryDy=0;" edge="1" parent="1" source="t4XwmmyLBH88IYUbOUnE-1" target="t4XwmmyLBH88IYUbOUnE-9">
          <mxGeometry relative="1" as="geometry" />
        </mxCell>
        <mxCell id="t4XwmmyLBH88IYUbOUnE-18" style="edgeStyle=orthogonalEdgeStyle;rounded=0;orthogonalLoop=1;jettySize=auto;html=1;exitX=0.5;exitY=0;exitDx=0;exitDy=0;entryX=0.5;entryY=1;entryDx=0;entryDy=0;" edge="1" parent="1" source="t4XwmmyLBH88IYUbOUnE-1" target="t4XwmmyLBH88IYUbOUnE-16">
          <mxGeometry relative="1" as="geometry" />
        </mxCell>
        <mxCell id="t4XwmmyLBH88IYUbOUnE-1" value="Эффективность" style="rounded=0;whiteSpace=wrap;html=1;fillColor=#f5f5f5;fontColor=#333333;strokeColor=#666666;" vertex="1" parent="1">
          <mxGeometry x="354" y="210" width="120" height="60" as="geometry" />
        </mxCell>
        <mxCell id="t4XwmmyLBH88IYUbOUnE-23" style="edgeStyle=orthogonalEdgeStyle;rounded=0;orthogonalLoop=1;jettySize=auto;html=1;exitX=0.5;exitY=1;exitDx=0;exitDy=0;entryX=0.5;entryY=0;entryDx=0;entryDy=0;" edge="1" parent="1" source="t4XwmmyLBH88IYUbOUnE-2" target="t4XwmmyLBH88IYUbOUnE-22">
          <mxGeometry relative="1" as="geometry" />
        </mxCell>
        <mxCell id="t4XwmmyLBH88IYUbOUnE-2" value="Контроль времени" style="rounded=0;whiteSpace=wrap;html=1;" vertex="1" parent="1">
          <mxGeometry x="-360" y="420" width="120" height="60" as="geometry" />
        </mxCell>
        <mxCell id="t4XwmmyLBH88IYUbOUnE-3" value="Постановка целей&lt;div&gt;которые несут пользу компании&lt;/div&gt;" style="rounded=0;whiteSpace=wrap;html=1;" vertex="1" parent="1">
          <mxGeometry x="280" y="470" width="120" height="60" as="geometry" />
        </mxCell>
        <mxCell id="t4XwmmyLBH88IYUbOUnE-4" value="Развитие себя" style="rounded=0;whiteSpace=wrap;html=1;" vertex="1" parent="1">
          <mxGeometry x="-20" y="470" width="120" height="60" as="geometry" />
        </mxCell>
        <mxCell id="t4XwmmyLBH88IYUbOUnE-6" value="Развитие команды" style="rounded=0;whiteSpace=wrap;html=1;" vertex="1" parent="1">
          <mxGeometry x="460" y="480" width="120" height="60" as="geometry" />
        </mxCell>
        <mxCell id="t4XwmmyLBH88IYUbOUnE-8" value="Приоритизация задач и целей" style="rounded=0;whiteSpace=wrap;html=1;" vertex="1" parent="1">
          <mxGeometry x="680" y="490" width="120" height="60" as="geometry" />
        </mxCell>
        <mxCell id="t4XwmmyLBH88IYUbOUnE-9" value="Поиск правильных решений" style="rounded=0;whiteSpace=wrap;html=1;" vertex="1" parent="1">
          <mxGeometry x="910" y="430" width="120" height="60" as="geometry" />
        </mxCell>
        <mxCell id="t4XwmmyLBH88IYUbOUnE-16" value="Создание клиентов" style="rounded=0;whiteSpace=wrap;html=1;" vertex="1" parent="1">
          <mxGeometry x="354" y="30" width="120" height="60" as="geometry" />
        </mxCell>
        <mxCell id="t4XwmmyLBH88IYUbOUnE-22" value="&quot;Метод помидора&quot; - Франческо Цирилло" style="rounded=0;whiteSpace=wrap;html=1;fillColor=#f5f5f5;strokeColor=#666666;fontColor=#333333;" vertex="1" parent="1">
          <mxGeometry x="-360" y="585" width="120" height="60" as="geometry" />
        </mxCell>
        <mxCell id="t4XwmmyLBH88IYUbOUnE-24" value="" style="endArrow=none;dashed=1;html=1;rounded=0;exitX=1;exitY=0.5;exitDx=0;exitDy=0;entryX=0;entryY=0.5;entryDx=0;entryDy=0;" edge="1" parent="1" source="t4XwmmyLBH88IYUbOUnE-22" target="t4XwmmyLBH88IYUbOUnE-4">
          <mxGeometry width="50" height="50" relative="1" as="geometry">
            <mxPoint x="-140" y="590" as="sourcePoint" />
            <mxPoint x="-90" y="540" as="targetPoint" />
          </mxGeometry>
        </mxCell>
      </root>
    </mxGraphModel>
  </diagram>
</mxfile>
